<?xml version="1.0" encoding="UTF-8"?>
<!DOCTYPE svg PUBLIC "-//W3C//DTD SVG 1.1//EN" "http://www.w3.org/Graphics/SVG/1.1/DTD/svg11.dtd">
<!-- Creator: CorelDRAW 2021 (64-Bit) -->
<svg xmlns="http://www.w3.org/2000/svg" xml:space="preserve" width="202.799mm" height="65.4267mm" version="1.1" shape-rendering="geometricPrecision" text-rendering="geometricPrecision" image-rendering="optimizeQuality" fill-rule="evenodd" clip-rule="evenodd"
viewBox="0 0 166562.47 53736.23"
 xmlns:xlink="http://www.w3.org/1999/xlink"
 xmlns:xodm="http://www.corel.com/coreldraw/odm/2003">
 <defs>
    <linearGradient id="id0" gradientUnits="userSpaceOnUse" x1="-0.08" y1="9886.88" x2="52729.71" y2="9886.88">
     <stop offset="0" stop-opacity="1" stop-color="#781C33"/>
     <stop offset="0.388235" stop-opacity="1" stop-color="#9A0E39"/>
     <stop offset="1" stop-opacity="1" stop-color="#BD0040"/>
    </linearGradient>
    <linearGradient id="id1" gradientUnits="userSpaceOnUse" x1="42842.82" y1="52729.79" x2="42842.82" y2="0">
     <stop offset="0" stop-opacity="1" stop-color="#0F4736"/>
     <stop offset="1" stop-opacity="1" stop-color="#0F8B59"/>
    </linearGradient>
    <linearGradient id="id2" gradientUnits="userSpaceOnUse" x1="14380.98" y1="7189.83" x2="52729.71" y2="7189.83">
     <stop offset="0" stop-opacity="1" stop-color="#F20F38"/>
     <stop offset="0.0784314" stop-opacity="1" stop-color="#F82E48"/>
     <stop offset="1" stop-opacity="1" stop-color="#FF4D59"/>
    </linearGradient>
    <linearGradient id="id3" gradientUnits="userSpaceOnUse" x1="-0.08" y1="33554.93" x2="14380.49" y2="33554.93">
     <stop offset="0" stop-opacity="1" stop-color="#BD0040"/>
     <stop offset="1" stop-opacity="1" stop-color="#F20F38"/>
    </linearGradient>
    <linearGradient id="id4" gradientUnits="userSpaceOnUse" x1="45538.89" y1="38347.25" x2="45538.89" y2="0">
     <stop offset="0" stop-opacity="1" stop-color="#00CB73"/>
     <stop offset="1" stop-opacity="1" stop-color="#42E3A3"/>
    </linearGradient>
    <linearGradient id="id5" gradientUnits="userSpaceOnUse" x1="19174.28" y1="52729.79" x2="19174.28" y2="38348.32">
     <stop offset="0" stop-opacity="1" stop-color="#0F8958"/>
     <stop offset="1" stop-opacity="1" stop-color="#00CC73"/>
    </linearGradient>
 </defs>
 <g id="Слой_x0020_1">
  <metadata id="CorelCorpID_0Corel-Layer"/>
  <path fill="black" fill-rule="nonzero" d="M160333.5 30348.91l-11573.71 13691.81 0 -13691.81 -5588.51 0 0 22378.41 5215.79 0 11573.46 -13691.97 0 13691.97 5588.75 0 0 -22378.41 -5215.79 0zm-45776.17 -30338.81l0 5088.16 8394.71 0 0 17290.34 5588.67 0 0 -17290.34 8394.79 0 0 -5088.16 -22378.17 0zm35201.76 14995.33l-10662.13 -14995.33 7412.49 0 6677.33 10098.04 7067.95 -10098.04 6307.73 0 -15755.13 22509.33 -6307.49 0 5259.24 -7514.01zm-66090.6 -14995.33l0 8691.86 -11266.37 0 0 -8691.86 -5621.36 0 0 22509.33 5621.36 0 0 -8692.11 11266.37 0 0 8692.11 5621.11 0 0 -22509.33 -5621.11 0zm10565.7 22509.33l5621.19 0 0 -17383.48 11252 0 0 -5125.86 -16873.19 0 0 22509.33zm8814.4 6820.81c-4415.5,31.05 -8381.32,2373.04 -10348.71,5884.76l4757.9 2285.65c1075.85,-1722.64 3236.66,-2943.86 5675.24,-2943.86 3104.51,0 5644.35,1945.46 6535.65,4427.16l-8837.89 0 0 5087.83 8837.89 0c-891.3,2481.86 -3431.14,4427.32 -6535.65,4427.32 -2438.25,0 -4598.81,-1220.89 -5674.58,-2943.28l-4775.23 2293.86c1956.05,3523.63 5924.84,5876.54 10449.16,5876.54 6432.74,0 12388.79,-5017.2 12388.79,-12198.32 0,-7181.37 -6148.32,-12241.85 -12472.56,-12197.66zm13993.73 1008.66l0 5087.99 8394.79 0 0 17290.42 5588.67 0 0 -17290.42 8394.71 0 0 -5087.99 -22378.17 0zm-33396.66 0l0 8645.13 -11201.4 0 0 -8645.13 -5588.34 0 0 22378.41 5588.34 0 0 -8645.54 11201.4 0 0 8645.54 5588.34 0 0 -22378.41 -5588.34 0z"/>
  <g id="_2631532091088">
   <polygon fill="url(#id0)" points="52729.13,0 -0,0 -0,19773.6 "/>
   <polygon fill="url(#id1)" points="32955.53,52728.72 52729.13,52728.72 52729.13,0 "/>
   <polygon fill="url(#id2)" points="14380.73,14380.65 38348.4,14380.65 52729.13,0 "/>
   <polygon fill="url(#id3)" points="-0,19773.6 -0,52728.72 14380.73,38348.56 14380.73,14380.65 "/>
   <polygon fill="url(#id4)" points="38348.4,14380.65 38348.4,38347.99 52729.13,0 "/>
   <polygon fill="url(#id5)" points="38348.4,38348.56 14380.73,38348.56 -0,52728.72 32955.53,52728.72 "/>
  </g>
 </g>
</svg>
